<?xml version="1.0" encoding="UTF-8"?>
<svg xmlns="http://www.w3.org/2000/svg" xmlns:xlink="http://www.w3.org/1999/xlink" width="810pt" height="809.999993pt" viewBox="0 0 810 809.999993" version="1.2">
<defs>
<clipPath id="clip1">
  <path d="M 64 222.648438 L 273 222.648438 L 273 509.148438 L 64 509.148438 Z M 64 222.648438 "/>
</clipPath>
</defs>
<g id="surface1">
<g clip-path="url(#clip1)" clip-rule="nonzero">
<path style=" stroke:none;fill-rule:nonzero;fill:rgb(0%,0%,0%);fill-opacity:1;" d="M 262.089844 442.179688 C 250.496094 457.632812 235.480469 474.28125 215.613281 486.957031 C 196.09375 499.230469 174.300781 509.148438 148.507812 509.148438 C 124.695312 509.148438 104.484375 496.46875 93.300781 486.164062 C 76.71875 470.699219 67.941406 447.726562 65.359375 426.722656 C 57.222656 360.546875 97.738281 273.757812 160.519531 235.722656 C 174.921875 227.007812 191.050781 222.648438 205.734375 222.648438 C 235.894531 222.648438 258.40625 244.113281 261.550781 269.742188 C 264.390625 292.84375 255.097656 312.796875 229.347656 325.726562 C 216.179688 332.335938 209.671875 332.023438 207.621094 328.871094 C 206.25 326.765625 207.019531 323.210938 209.671875 321.003906 C 233.886719 300.875 234.351562 284.363281 231.492188 261.082031 C 229.648438 246.105469 219.742188 236.515625 208.628906 236.515625 C 161.011719 236.515625 92.726562 342.71875 102.226562 419.984375 C 105.929688 450.109375 124.503906 484.96875 162.597656 484.96875 C 175.292969 484.96875 188.742188 481.402344 200.707031 475.457031 C 227.222656 461.984375 239.097656 452.070312 255.070312 430.285156 C 257.117188 427.507812 259.105469 424.34375 261.492188 421.171875 C 263.136719 418.386719 265.421875 417.605469 267.40625 417.605469 C 269.789062 417.605469 272.011719 419.589844 272.402344 422.753906 C 272.695312 425.132812 271.945312 428.699219 269.210938 432.273438 C 266.820312 435.445312 264.484375 439.007812 262.089844 442.179688 Z M 262.089844 442.179688 "/>
</g>
<path style=" stroke:none;fill-rule:nonzero;fill:rgb(0%,0%,0%);fill-opacity:1;" d="M 334.066406 481.015625 C 322.164062 481.015625 315.433594 474.671875 313.074219 465.148438 C 305.210938 475.449219 294.789062 481.015625 283.675781 481.015625 C 265.421875 481.015625 248.046875 465.542969 245.515625 444.941406 C 241.078125 408.878906 272.234375 362.125 319.058594 362.125 C 338.894531 362.125 355.347656 370.046875 357.296875 385.902344 C 359.734375 405.722656 342.761719 409.675781 336.410156 409.675781 C 330.859375 409.675781 321.929688 408.085938 321.300781 402.9375 C 320.617188 397.390625 333.304688 400.550781 331.75 387.878906 C 330.773438 379.957031 322.5 377.183594 314.5625 377.183594 C 285.988281 377.183594 270.230469 416.804688 273.246094 441.382812 C 274.613281 452.464844 280.339844 463.578125 290.660156 463.578125 C 298.992188 463.578125 311.019531 451.699219 315.621094 434.238281 C 318.527344 422.363281 329.855469 414.4375 338.183594 414.4375 C 342.546875 414.4375 345.566406 416.417969 346.105469 420.765625 C 346.300781 422.363281 346.148438 424.328125 345.648438 426.710938 C 344.695312 431.863281 340.726562 448.996094 340.898438 452.5625 C 341.046875 455.660156 342.832031 459.894531 348.230469 459.894531 C 354.183594 459.894531 382.28125 443.5625 398.601562 421.375 C 399.941406 419.390625 402.574219 418.203125 404.964844 418.203125 C 407.339844 418.203125 409.476562 419.386719 409.800781 422.160156 C 410.148438 424.941406 408.996094 428.492188 405.617188 433.25 C 386.957031 459.039062 347.957031 481.015625 334.066406 481.015625 Z M 334.066406 481.015625 "/>
<path style=" stroke:none;fill-rule:nonzero;fill:rgb(0%,0%,0%);fill-opacity:1;" d="M 727.996094 467.542969 C 729.402344 479.015625 734.703125 486.558594 739.597656 490.917969 C 741.386719 492.5 742.417969 494.488281 742.570312 495.675781 C 742.960938 498.84375 740.523438 501.609375 736.550781 501.609375 C 735.359375 501.609375 733.777344 501.609375 732.488281 500.820312 C 712.023438 492.492188 703.578125 478.625 701.164062 465.542969 C 693.265625 475.453125 682.820312 481.015625 672.113281 481.015625 C 653.863281 481.015625 636.039062 465.148438 633.5 444.546875 C 629.113281 408.882812 661.46875 362.128906 707.492188 362.128906 C 726.941406 362.128906 743.734375 369.65625 745.664062 385.503906 C 748.148438 405.71875 730.796875 409.679688 724.839844 409.679688 C 718.878906 409.679688 709.953125 408.089844 709.328125 402.941406 C 708.691406 397.792969 721.722656 400.550781 720.21875 388.277344 C 719.25 380.347656 710.921875 377.183594 702.976562 377.183594 C 676.394531 377.183594 658.121094 412.457031 661.625 440.984375 C 663.035156 452.464844 668.363281 463.585938 678.6875 463.585938 C 687.023438 463.585938 699.4375 451.699219 704.050781 434.246094 C 707.011719 422.761719 718.28125 414.445312 726.621094 414.445312 C 730.582031 414.445312 734.007812 416.421875 734.582031 421.179688 C 734.886719 423.5625 733.929688 428.710938 729.46875 447.332031 C 727.671875 455.253906 727.316406 461.992188 727.996094 467.542969 Z M 727.996094 467.542969 "/>
<path style=" stroke:none;fill-rule:nonzero;fill:rgb(0%,0%,0%);fill-opacity:1;" d="M 481.003906 460.320312 C 487.355469 460.320312 508.050781 452.429688 524.347656 430.238281 C 526.101562 428.253906 528.324219 427.070312 530.703125 427.070312 C 533.492188 427.070312 535.609375 428.253906 536.003906 431.417969 C 536.292969 433.808594 534.746094 437.367188 531.367188 442.113281 C 512.714844 467.871094 481.195312 480.949219 467.308594 480.949219 C 453.027344 480.949219 445.226562 472.21875 443.609375 459.144531 C 443.074219 454.792969 443.222656 449.625 444.140625 444.082031 C 448.867188 414.75 459.710938 396.527344 459.03125 390.984375 C 458.835938 389.394531 457.949219 388.601562 456.742188 388.601562 C 447.613281 388.601562 415.550781 421.492188 410.6875 443.285156 L 406.878906 460.71875 C 404.414062 472.996094 392.300781 480.929688 383.96875 480.929688 C 379.996094 480.929688 376.980469 478.9375 376.441406 474.585938 C 376.246094 472.996094 376.402344 471.019531 376.902344 468.648438 C 376.902344 468.648438 392.730469 387.398438 393.457031 383.5 C 395.230469 373.960938 398.671875 364.144531 418.117188 364.144531 C 422.089844 364.144531 425.121094 366.125 425.695312 370.878906 C 425.890625 372.46875 425.730469 374.453125 425.234375 376.824219 L 419.808594 401.28125 C 436.867188 378.699219 463.386719 362.054688 479.261719 362.054688 C 486.007812 362.054688 491.207031 365.617188 492.082031 372.753906 C 492.5625 376.71875 491.410156 383.449219 488.765625 390.984375 C 483.109375 406.4375 476.765625 429.648438 472.558594 449.625 C 471.714844 453.902344 473.199219 460.320312 481.003906 460.320312 Z M 481.003906 460.320312 "/>
<path style=" stroke:none;fill-rule:nonzero;fill:rgb(0%,0%,0%);fill-opacity:1;" d="M 613.753906 425.140625 C 611.363281 425.140625 609.382812 425.140625 607.007812 424.746094 C 589.152344 450.496094 570.488281 468.335938 556.210938 476.257812 C 550.257812 479.429688 544.714844 481.011719 540.726562 481.011719 C 537.550781 481.011719 533.980469 480.222656 532.394531 477.445312 C 526.050781 466.75 523.261719 444.960938 523.261719 422.363281 C 523.261719 405.714844 524.449219 392.242188 527.613281 382.34375 C 530.792969 372.039062 543.886719 362.132812 552.613281 362.132812 C 556.96875 362.132812 560.160156 364.507812 560.160156 369.265625 C 560.160156 370.851562 559.757812 372.828125 558.960938 374.808594 C 553.011719 392.242188 549.824219 408.496094 549.824219 424.746094 C 549.824219 433.855469 551.8125 448.519531 553.792969 456.042969 C 554.195312 457.625 554.578125 459.21875 556.171875 459.21875 C 558.957031 459.21875 577.601562 440.984375 591.089844 418.792969 C 579.199219 411.261719 572.445312 397.378906 572.445312 380.355469 C 572.445312 351.828125 589.507812 337.164062 606.171875 337.164062 C 619.269531 337.164062 631.171875 346.675781 631.171875 365.695312 C 631.171875 377.582031 626.40625 391.054688 619.675781 404.136719 C 619.675781 404.136719 622.457031 404.53125 623.636719 404.53125 C 633.957031 404.53125 641.894531 399.789062 646.269531 394.621094 C 649.449219 391.058594 652.210938 388.675781 655 388.675781 C 656.976562 388.675781 657.78125 390.265625 657.78125 392.242188 C 657.78125 393.441406 657.378906 395.417969 656.183594 397.398438 C 646.691406 414.441406 628.4375 425.140625 613.753906 425.140625 Z M 589.546875 365.699219 C 589.546875 376.792969 595.101562 388.285156 602.238281 395.8125 C 605.019531 388.285156 606.601562 380.761719 606.601562 373.226562 C 606.601562 358.964844 601.054688 352.621094 596.679688 352.621094 C 591.53125 352.621094 589.546875 359.753906 589.546875 365.699219 Z M 589.546875 365.699219 "/>
</g>
</svg>
