<?xml version="1.0" encoding="UTF-8"?>
<!DOCTYPE svg  PUBLIC '-//W3C//DTD SVG 20010904//EN'  'http://www.w3.org/TR/2001/REC-SVG-20010904/DTD/svg10.dtd'>
<svg width="3632pt" height="5152pt" version="1.0" viewBox="0 0 3632.000000 5152.000000" xmlns="http://www.w3.org/2000/svg">
<metadata>QueTalDesseJeito</metadata>
<g transform="translate(0 5152) scale(.1 -.1)">
<path d="m5650 43589c-230-16-511-68-720-134-1014-318-1785-1252-2139-2592-139-525-210-1063-231-1756-22-702 28-1372 146-1967 235-1186 777-2114 1529-2617 488-327 1078-481 1752-459 573 19 1057 160 1469 428 301 196 587 494 788 821l48 77h45 45l-6-37c-3-21-17-173-31-338-13-165-32-390-42-500-15-179-17-419-20-2242l-4-2043h1596 1595v6605 6605h-1380c-759 0-1380-4-1380-8s-52-257-115-562c-63-304-115-557-115-562 0-4-13-8-29-8-26 0-37 11-87 83-411 590-969 974-1639 1126-332 76-722 105-1075 80zm1758-2484c308-52 558-197 728-423 209-277 335-729 373-1337 28-443 21-1134-14-1440-99-858-417-1254-1090-1356-44-7-161-12-260-12-146 0-200 4-285 22-201 42-340 103-477 208-137 104-236 226-324 402-180 355-269 884-269 1599 0 1334 318 2107 949 2306 143 45 229 56 411 51 91-2 207-11 258-20z"/>
<path d="m28640 43593c-123-5-447-32-570-49-1669-218-2836-1142-3355-2654-205-599-315-1333-315-2105 0-1309 313-2350 942-3137 340-425 796-791 1298-1043 825-414 1780-581 3060-536 954 33 1577 127 2188 330 250 83 366 131 745 304l67 31v1148 1148l-22-9c-13-5-84-36-159-69-956-424-1715-596-2726-619-322-7-479 3-699 42-173 31-267 56-394 103-262 98-465 227-641 408-193 200-308 408-380 682-27 105-59 306-59 373v29h2841 2841l-5 903c-5 933-8 1016-52 1347-125 933-474 1693-1030 2245-618 612-1441 975-2475 1091-328 36-752 51-1100 37zm638-2178c225-33 455-127 597-242 286-232 455-554 510-972 8-58 15-132 15-163v-58h-1355-1355v31c0 47 29 232 51 329 141 618 525 990 1109 1075 119 18 312 18 428 0z"/>
<path d="m13643 40218c4-3464 1-3244 51-3573 204-1329 1008-2224 2238-2490 451-97 970-118 1490-60 498 56 965 207 1348 438 327 197 607 460 809 760l52 78 90-3 91-3 198-570 198-570 1201-3 1201-2v4610 4610h-1590-1590v-2107c0-2092-4-2411-35-2773-57-660-177-1121-372-1425-234-365-597-547-1098-549-175-1-230 6-355 46-454 145-689 615-740 1483-6 106-10 1144-10 2748v2577h-1590-1590l3-3222z"/>
<path d="m19590 26835v-5765h1455 1455l-2 5763-3 5762-1452 3-1453 2v-5765z"/>
<path d="m25760 32442c0-38 3-72 8-76 4-4 13-130 19-279 7-150 19-398 28-552s19-341 23-416c4-76 12-142 18-150 8-9 14-105 19-274 4-143 11-264 15-270 4-5 11-124 15-264 4-139 11-267 16-284 5-18 9-81 9-142 0-73 5-119 14-136 10-19 15-97 20-285 4-143 11-272 16-289 5-16 14-145 19-285 13-310 28-516 40-550 6-14 13-137 16-275 4-137 10-263 15-280 5-16 13-147 18-289 6-187 11-261 20-264s12-42 12-137c0-74 4-136 9-139 4-3 12-126 16-273 4-148 11-272 15-278 4-5 11-125 15-265 5-182 11-265 21-289 10-23 14-74 14-162 0-70 4-130 9-133s12-125 16-271 11-268 16-271 9-58 10-122c1-209 14-421 27-434 8-8 12-57 12-150 0-76 4-138 9-138s12-124 16-275c4-152 11-278 16-281s9-53 9-112c1-185 17-423 29-435 7-7 11-58 11-142 0-73 3-135 8-139 4-4 13-132 20-284s15-317 17-367c3-49 9-170 14-269 6-102 14-183 20-189 7-7 11-62 11-143 0-78 4-135 10-139 6-3 10-41 10-84s3-160 7-259l6-182h2502 2502l7 38c3 20 6 94 6 164s4 129 9 132 12 126 16 273c5 175 11 273 19 282 11 15 17 94 38 546 7 149 16 275 19 280 4 6 10 129 14 275 5 173 11 270 19 279 11 14 16 82 38 556 7 149 16 275 19 280 4 6 10 132 14 280 5 183 11 272 19 277 12 8 18 99 37 558 7 151 15 277 19 280s11 124 15 270c5 199 10 269 20 280 10 10 16 58 19 150 13 330 32 676 37 685 4 6 10 133 14 283 6 209 11 274 21 280 9 5 14 45 18 142 5 128 26 521 45 840 5 80 12 199 16 265 3 66 11 129 16 140s11 79 13 150c17 444 29 662 37 680 5 11 11 81 13 155s9 187 15 250 16 189 21 280c6 91 14 230 19 310s9 202 10 273c1 72 5 127 10 127 6 0 12 60 14 138 2 75 9 178 16 228 12 94 23 275 44 744 7 146 16 272 19 280 4 8 8 88 11 178l4 162h-3258-3259v-68z"/>
<path d="m4593 31133c-4-10-172-407-374-883l-367-865-645-455-646-455v-592l-1-593h510 510v-1852c0-1139 4-1909 10-1998 62-886 319-1537 766-1934 500-445 1274-632 2386-576 552 28 975 107 1463 274 186 63 463 170 478 185 4 4 6 483 5 1064l-3 1057-100-35c-229-79-545-163-770-204-210-38-299-46-510-45-183 0-220 3-290 22-134 37-220 85-305 171-124 126-182 270-200 506-5 68-10 819-10 1743v1622h1030 1030v1090 1090h-1030-1030v840 840h-950c-896 0-951-1-957-17z"/>
<path d="m13470 29590c-868-59-1568-194-2245-435-259-92-685-281-685-303 0-5 33-85 74-178s228-520 416-949 343-781 345-783 68 24 147 57c863 361 1513 535 2088 557 397 16 665-63 854-252 170-170 246-386 262-744l7-146-614-17c-1066-31-1401-56-1860-142-382-71-770-183-1044-300-921-394-1387-994-1501-1936-20-163-22-560-5-764 28-326 102-642 213-920 165-409 457-770 818-1009 311-206 646-324 1085-383 195-26 741-23 993 6 805 91 1228 274 1761 761 92 84 295 302 385 413 83 101 56 136 373-498l278-555h1007 1008v2843c0 1838-4 2890-10 2977-58 766-313 1362-785 1835-509 511-1202 795-2119 870-262 21-894 18-1246-5zm1270-5157c0-292-4-400-15-473-54-329-229-588-530-782-93-61-153-90-257-126-177-63-386-89-578-72-382 33-592 190-676 505-15 56-19 106-19 255 1 211 15 288 85 437 154 329 517 527 1079 589 139 15 610 40 804 43l107 1v-377z"/>
<path d="m6150 19083c0-694 8-909 46-1197 8-65 12-121 9-125-7-6-15 3-88 102-196 269-449 420-786 468-117 16-369 6-491-20-352-75-618-267-827-596-277-437-392-1114-317-1868 53-537 230-985 504-1271 186-195 364-293 640-352 113-25 385-25 516-1 167 30 336 101 469 195 116 82 248 223 310 330 39 65 49 55 211-223l149-255h522 523v2745 2745h-695-695v-677zm-351-1878c253-60 388-242 441-595 21-137 24-529 6-676-33-276-111-450-241-539-111-77-316-115-457-86-250 52-410 284-459 666-15 119-15 424 1 550 45 369 200 620 420 679 72 19 209 20 289 1z"/>
<path d="m28485 18763c-55-2-107-6-115-10s-67-12-130-19-155-20-205-29c-49-8-119-20-155-25-36-6-74-15-85-20s-45-13-75-19c-74-13-141-29-165-40-11-5-37-12-57-16-21-3-38-10-38-14 0-5-19-11-42-14-24-3-44-11-46-16-2-6-11-11-19-11-48 0-392-159-513-237-95-61-145-96-155-108-5-6-22-18-36-26-40-21-299-260-299-275 0-2-19-23-42-48-57-59-78-87-78-103 0-7-4-13-10-13-5 0-10-7-10-15s-6-15-13-15-23-21-37-47c-14-27-34-62-46-78-24-33-64-118-64-134 0-6-3-11-8-11-10 0-40-58-48-95-4-16-10-34-14-40-5-5-11-27-15-47-4-21-10-38-14-38-13 0-40-75-47-130-4-30-10-60-15-66s-11-44-15-85-12-81-19-89c-15-18-22-76-35-308-12-234 9-592 37-610 6-4 14-42 18-84 3-43 10-80 15-83 4-3 11-30 15-60 3-30 11-55 16-55s9-11 9-24 6-29 14-35c8-7 17-28 21-49 4-20 10-41 15-47 4-5 10-23 14-39s18-43 30-60c13-17 27-46 31-63 3-18 11-33 16-33s9-7 9-15 9-24 20-35 20-24 20-30c0-5 4-10 9-10s12-13 16-30c4-16 11-30 16-30s9-5 9-11 16-30 36-53c47-55 54-64 54-71 0-4 15-22 33-40 17-18 57-61 87-94 30-34 86-88 123-119 38-31 80-67 93-79 14-13 28-23 32-23s27-18 51-40 52-42 63-46c10-3 30-16 45-30 14-13 32-24 39-24s19-7 28-15c8-8 25-19 38-25 28-12 57-30 76-47 7-7 22-13 33-13 10 0 19-4 19-10 0-5 11-12 25-16 14-3 25-10 25-15s7-9 15-9 32-9 52-20c21-11 43-20 50-20s13-4 13-10c0-5 18-13 40-16 22-4 40-10 40-15 0-4 16-11 35-15 19-3 37-10 40-14 3-5 23-11 45-15s40-11 40-15c0-5 20-12 45-16 25-3 45-10 45-14 0-5 25-12 55-15 30-4 55-11 55-16 0-4 21-11 48-15 26-3 52-10 57-14 6-5 38-12 73-16 34-3 62-10 62-14 0-5 33-11 73-15 39-4 77-11 83-16s53-12 105-16c52-3 96-10 99-14 3-5 71-12 150-15 80-4 148-12 152-17 9-14 903-14 920 0 7 6 76 13 152 16 77 4 142 10 145 15s47 13 96 17c50 4 95 10 100 15 6 4 41 10 80 14 38 4 74 11 80 16s37 12 68 16 57 10 57 14 25 10 57 13c31 3 59 10 62 15s25 13 48 17c24 4 45 10 48 15s23 11 46 15c22 4 53 13 67 21 15 8 35 14 45 14 9 0 17 5 17 10 0 6 6 10 13 10 6 0 24 6 39 14s40 17 57 21 31 10 31 15c0 4 16 11 35 14 19 4 35 11 35 16 0 6 9 10 19 10 11 0 26 6 33 14 8 7 25 17 38 21 14 4 27 10 30 14 3 3 36 22 74 41s71 40 73 47c2 6 16 14 30 18 14 3 39 19 55 36 16 16 35 29 42 29s28 14 46 30c18 17 37 30 41 30 5 0 25 15 45 33 35 30 265 259 305 302 21 23 69 93 69 101 0 3 10 15 23 27s35 44 48 71c13 28 34 61 47 74 12 14 22 30 22 36 1 6 9 29 20 51s19 46 20 53c0 7 7 15 15 18 8 4 15 14 15 24 0 11 4 21 9 24 5 4 12 24 16 46s10 40 14 40c3 0 12 24 19 53 7 28 17 53 22 55 6 2 10 15 10 28s4 32 10 42c9 16 26 102 36 187 3 22 9 49 14 60 4 11 13 58 20 105 14 105 8 608-9 695-7 33-15 85-18 115s-9 60-13 65c-4 6-11 38-15 73-4 34-11 65-16 68s-9 18-9 33-9 46-20 69c-11 22-20 48-20 57 0 8-4 15-9 15s-12 20-15 45c-4 24-11 47-17 50-5 4-9 15-9 26s-7 22-15 25c-8 4-15 11-15 18-1 6-9 29-20 51s-19 45-20 51c0 6-11 23-25 38s-25 32-25 38c0 13-53 100-77 127-28 31-37 44-50 73-7 15-24 34-38 44-14 9-25 20-25 25s-24 35-52 66c-73 77-89 92-142 138-26 22-62 54-80 71-18 18-43 35-55 39-11 3-21 10-21 15 0 4-26 25-57 46-32 21-60 41-63 44-5 7-50 34-150 90-51 28-110 57-200 97-19 9-47 22-62 30-14 7-36 13-47 13-12 0-21 4-21 8 0 5-33 19-72 31-40 13-90 29-111 37-20 8-49 14-62 14-14 0-25 4-25 9s-19 12-42 16c-24 4-47 10-53 14-10 6-77 22-190 44-33 7-64 15-70 18-5 4-46 10-90 13-44 4-91 11-105 17-24 9-117 19-365 38-102 9-789 11-1020 4z"/>
<path d="m10005 18330c-511-58-851-206-1145-500-244-243-383-504-474-890-101-428-95-986 13-1395 165-625 602-1065 1236-1244 300-85 676-117 1085-92 477 29 772 92 1085 233l115 51v499c0 274-4 498-9 498-4 0-54-20-111-45-372-163-706-239-1096-252-264-9-454 21-597 94-238 120-359 299-390 581l-4 32h1234 1233v338c0 535-22 732-111 1011-125 389-399 707-763 885-183 90-358 142-611 181-119 19-569 28-690 15zm516-959c131-41 256-149 318-276 34-68 66-186 75-272l5-53h-589-588l5 43c45 376 281 599 618 582 50-2 120-13 156-24z"/>
<path d="m14285 18334c-543-40-970-226-1188-518-150-201-218-444-204-730 28-585 306-896 1077-1206 343-137 563-238 643-291 20-14 50-43 67-64 88-111 50-220-96-275-278-103-1018 12-1594 250-40 16-77 30-81 30-5 0-9-250-9-554v-555l139-45c312-102 548-143 961-167 471-27 883 10 1175 106 481 157 764 467 841 920 23 135 23 414 0 549-28 164-80 299-169 431-58 88-211 234-318 305-128 84-369 200-639 308-455 182-559 232-619 297-46 50-63 101-50 148 11 42 41 70 104 99 46 21 64 23 215 23 131 0 188-5 278-23 202-41 532-145 724-229 42-18 80-33 85-33 4 0 34 62 65 138 32 75 116 276 188 446s129 310 128 312c-2 1-88 36-193 77-318 126-575 197-840 233-104 14-575 26-690 18z"/>
<path d="m18050 18326c-756-80-1202-412-1296-965-13-74-15-132-11-261 8-222 38-352 120-515 139-278 419-490 904-684 615-246 764-328 797-442 54-181-168-274-577-241-362 30-775 130-1127 273-52 22-100 39-107 39-11 0-13-104-11-552l3-552 74-28c177-68 499-141 741-168 359-40 872-37 1129 6 224 37 448 108 588 186 320 177 508 425 577 759 25 121 36 321 26 450-28 338-110 531-312 731-160 159-391 290-788 448-451 179-595 248-658 310-87 87-78 189 22 238 194 97 656 22 1194-194 75-30 139-51 143-47 4 5 37 78 72 163 36 85 117 279 181 430s116 280 116 286c0 13-177 88-360 153-239 85-450 136-690 167-167 22-584 27-750 10z"/>
<path d="m22165 18330c-300-27-583-110-810-238-584-328-884-954-885-1843 0-512 106-914 331-1254 102-155 293-344 449-448 407-269 931-379 1615-338 503 30 805 95 1118 243l87 41v499c0 274-3 498-6 498s-42-16-87-36c-389-171-718-248-1112-261-256-8-389 9-545 70-184 71-337 220-398 387-22 59-51 190-52 233 0 16 65 17 1231 17h1231l-5 463c-5 493-10 546-66 764-85 331-250 603-485 802-240 203-529 324-922 386-116 18-551 28-689 15zm451-945c229-44 391-219 440-473 8-40 14-89 14-108v-34h-586-585l7 58c10 84 51 218 87 287 18 33 57 85 88 116 137 138 331 193 535 154z"/>
<path d="m15750 12924c-319-59-464-227-477-554-14-344 119-536 432-622 70-19 106-22 295-22 193-1 224 2 300 22 301 80 440 264 440 582 0 194-48 330-154 435-75 74-135 107-257 141-84 24-114 27-294 30-150 2-221-1-285-12z"/>
<path d="m22563 12926c-335-64-483-243-484-586 0-283 85-437 299-545 90-45 202-66 389-72 251-8 412 25 548 112 153 98 236 272 235 493-1 251-103 442-280 528-122 60-211 76-435 80-139 2-222-1-272-10z"/>
<path d="m25112 12098c-10-24-90-213-178-420l-159-378-307-217-308-216v-284-283h239 240l4-937c4-1019 5-1029 63-1263 85-342 245-555 519-692 170-86 373-127 662-135 425-12 739 38 1088 175l100 39 3 508c2 480 1 507-15 502-10-2-71-21-135-41-298-91-575-114-700-58-94 42-158 134-178 256-6 37-10 376-10 854v792h490 490v520 520h-490-490v400 400h-455-454l-19-42z"/>
<path d="m19245 11404c-299-30-461-63-645-131-459-171-794-510-971-980-181-481-211-1169-72-1683 174-648 631-1091 1299-1259 225-57 352-72 664-78 644-13 1054 56 1466 247l84 39v500 501l-37-16c-338-146-566-215-853-259-141-22-512-31-621-16-399 57-634 278-684 644l-6 47h1231 1232l-5 463c-4 477-7 515-52 720-157 707-689 1155-1480 1247-94 11-481 21-550 14zm400-959c169-43 305-163 372-328 26-65 53-187 53-243v-34h-586-585l6 48c49 367 257 569 585 571 55 1 121-6 155-14z"/>
<path d="m29400 11404c-411-37-704-124-965-287-481-299-758-791-825-1466-13-134-13-472 1-603 55-537 244-951 581-1273 275-264 590-413 1018-482 177-28 593-26 790 5 446 69 786 235 1056 514 374 387 555 944 530 1633-19 555-178 997-485 1351-272 314-684 525-1151 590-103 14-461 26-550 18zm377-1057c236-70 358-316 394-797 12-151 6-407-12-552-60-482-231-697-555-698-101 0-168 15-249 54-188 93-293 308-335 686-14 123-14 488 0 610 45 399 165 619 380 695 94 34 267 34 377 2z"/>
<path d="m15298 9223c-3-2003-4-2121-21-2178-45-150-103-234-194-282-88-47-160-58-295-44-98 10-254 39-310 57-17 5-18-23-18-539v-545l48-11c70-16 281-48 409-62 71-7 199-10 345-6 324 7 492 41 714 147 339 160 566 439 660 810 55 215 54 162 54 2557v2213h-695-695l-2-2117z"/>
<path d="m22110 9340v-2e3h695 695v2e3 2e3h-695-695v-2e3z"/>
</g>
</svg>
